<?xml version="1.0" encoding="UTF-8" standalone="no"?>
<!DOCTYPE svg PUBLIC "-//W3C//DTD SVG 1.1//EN"
 "http://www.w3.org/Graphics/SVG/1.1/DTD/svg11.dtd">
<!-- Generated by graphviz version 2.43.0 (0)
 -->
<!-- Title: Craigslist Pages: 1 -->
<svg width="408pt" height="543pt"
 viewBox="0.00 0.00 407.92 543.09" xmlns="http://www.w3.org/2000/svg" xmlns:xlink="http://www.w3.org/1999/xlink">
<g id="graph0" class="graph" transform="scale(1 1) rotate(0) translate(4 539.09)">
<title>Craigslist</title>
<polygon fill="white" stroke="transparent" points="-4,4 -4,-539.09 403.92,-539.09 403.92,4 -4,4"/>
<!-- Regions -->
<g id="node1" class="node">
<title>Regions</title>
<ellipse fill="none" stroke="black" cx="89.8" cy="-37.48" rx="89.61" ry="37.45"/>
<text text-anchor="middle" x="89.8" y="-48.78" font-family="Times,serif" font-size="14.00">Regions</text>
<text text-anchor="middle" x="89.8" y="-33.78" font-family="Times,serif" font-size="14.00">&#45; region_id (PK)</text>
<text text-anchor="middle" x="89.8" y="-18.78" font-family="Times,serif" font-size="14.00">&#45; name</text>
</g>
<!-- Users -->
<g id="node2" class="node">
<title>Users</title>
<ellipse fill="none" stroke="black" cx="175.8" cy="-169.64" rx="142.67" ry="58.88"/>
<text text-anchor="middle" x="175.8" y="-195.94" font-family="Times,serif" font-size="14.00">Users</text>
<text text-anchor="middle" x="175.8" y="-180.94" font-family="Times,serif" font-size="14.00">&#45; user_id (PK)</text>
<text text-anchor="middle" x="175.8" y="-165.94" font-family="Times,serif" font-size="14.00">&#45; name</text>
<text text-anchor="middle" x="175.8" y="-150.94" font-family="Times,serif" font-size="14.00">&#45; email</text>
<text text-anchor="middle" x="175.8" y="-135.94" font-family="Times,serif" font-size="14.00">&#45; preferred_region_id (FK)</text>
</g>
<!-- Users&#45;&gt;Regions -->
<g id="edge1" class="edge">
<title>Users&#45;&gt;Regions</title>
<path fill="none" stroke="black" d="M138.83,-112.69C132.07,-102.45 125.11,-91.91 118.63,-82.11"/>
<polygon fill="black" stroke="black" points="121.51,-80.12 113.08,-73.7 115.67,-83.97 121.51,-80.12"/>
</g>
<!-- Posts -->
<g id="node3" class="node">
<title>Posts</title>
<ellipse fill="none" stroke="black" cx="89.8" cy="-344.24" rx="89.61" ry="79.81"/>
<text text-anchor="middle" x="89.8" y="-385.54" font-family="Times,serif" font-size="14.00">Posts</text>
<text text-anchor="middle" x="89.8" y="-370.54" font-family="Times,serif" font-size="14.00">&#45; post_id (PK)</text>
<text text-anchor="middle" x="89.8" y="-355.54" font-family="Times,serif" font-size="14.00">&#45; title</text>
<text text-anchor="middle" x="89.8" y="-340.54" font-family="Times,serif" font-size="14.00">&#45; text</text>
<text text-anchor="middle" x="89.8" y="-325.54" font-family="Times,serif" font-size="14.00">&#45; user_id (FK)</text>
<text text-anchor="middle" x="89.8" y="-310.54" font-family="Times,serif" font-size="14.00">&#45; location</text>
<text text-anchor="middle" x="89.8" y="-295.54" font-family="Times,serif" font-size="14.00">&#45; region_id (FK)</text>
</g>
<!-- Posts&#45;&gt;Regions -->
<g id="edge3" class="edge">
<title>Posts&#45;&gt;Regions</title>
<path fill="none" stroke="black" d="M43.31,-275.6C35.26,-260.65 28.1,-244.45 23.8,-228.33 10.36,-177.93 4.97,-159.6 23.8,-110.95 28.31,-99.31 35.66,-88.38 43.85,-78.72"/>
<polygon fill="black" stroke="black" points="46.47,-81.03 50.55,-71.26 41.27,-76.36 46.47,-81.03"/>
</g>
<!-- Posts&#45;&gt;Users -->
<g id="edge2" class="edge">
<title>Posts&#45;&gt;Users</title>
<path fill="none" stroke="black" d="M125.9,-270.79C131.54,-259.48 137.34,-247.84 142.9,-236.67"/>
<polygon fill="black" stroke="black" points="146.18,-237.94 147.51,-227.43 139.92,-234.82 146.18,-237.94"/>
</g>
<!-- Categories -->
<g id="node4" class="node">
<title>Categories</title>
<ellipse fill="none" stroke="black" cx="298.8" cy="-344.24" rx="101.23" ry="37.45"/>
<text text-anchor="middle" x="298.8" y="-355.54" font-family="Times,serif" font-size="14.00">Categories</text>
<text text-anchor="middle" x="298.8" y="-340.54" font-family="Times,serif" font-size="14.00">&#45; category_id (PK)</text>
<text text-anchor="middle" x="298.8" y="-325.54" font-family="Times,serif" font-size="14.00">&#45; name</text>
</g>
<!-- PostCategories -->
<g id="node5" class="node">
<title>PostCategories</title>
<ellipse fill="none" stroke="black" cx="193.8" cy="-497.62" rx="101.23" ry="37.45"/>
<text text-anchor="middle" x="193.8" y="-508.92" font-family="Times,serif" font-size="14.00">PostCategories</text>
<text text-anchor="middle" x="193.8" y="-493.92" font-family="Times,serif" font-size="14.00">&#45; post_id (FK)</text>
<text text-anchor="middle" x="193.8" y="-478.92" font-family="Times,serif" font-size="14.00">&#45; category_id (FK)</text>
</g>
<!-- PostCategories&#45;&gt;Posts -->
<g id="edge4" class="edge">
<title>PostCategories&#45;&gt;Posts</title>
<path fill="none" stroke="black" d="M169.42,-461.12C161.22,-449.18 151.72,-435.36 142.21,-421.51"/>
<polygon fill="black" stroke="black" points="144.84,-419.17 136.29,-412.91 139.07,-423.13 144.84,-419.17"/>
</g>
<!-- PostCategories&#45;&gt;Categories -->
<g id="edge5" class="edge">
<title>PostCategories&#45;&gt;Categories</title>
<path fill="none" stroke="black" d="M218.42,-461.12C233.31,-439.66 252.41,-412.12 268.26,-389.27"/>
<polygon fill="black" stroke="black" points="271.33,-390.98 274.16,-380.77 265.58,-386.99 271.33,-390.98"/>
</g>
</g>
</svg>
