<?xml version="1.0" encoding="UTF-8" standalone="no"?>
<!DOCTYPE svg PUBLIC "-//W3C//DTD SVG 1.1//EN"
 "http://www.w3.org/Graphics/SVG/1.1/DTD/svg11.dtd">
<!-- Generated by graphviz version 2.43.0 (0)
 -->
<!-- Title: MedicalCenter Pages: 1 -->
<svg width="502pt" height="432pt"
 viewBox="0.00 0.00 502.09 432.14" xmlns="http://www.w3.org/2000/svg" xmlns:xlink="http://www.w3.org/1999/xlink">
<g id="graph0" class="graph" transform="scale(1 1) rotate(0) translate(4 428.14)">
<title>MedicalCenter</title>
<polygon fill="white" stroke="transparent" points="-4,4 -4,-428.14 498.09,-428.14 498.09,4 -4,4"/>
<!-- Doctors -->
<g id="node1" class="node">
<title>Doctors</title>
<ellipse fill="none" stroke="black" cx="199.75" cy="-58.69" rx="89.61" ry="58.88"/>
<text text-anchor="middle" x="199.75" y="-84.99" font-family="Times,serif" font-size="14.00">Doctors</text>
<text text-anchor="middle" x="199.75" y="-69.99" font-family="Times,serif" font-size="14.00">&#45; doctor_id (PK)</text>
<text text-anchor="middle" x="199.75" y="-54.99" font-family="Times,serif" font-size="14.00">&#45; name</text>
<text text-anchor="middle" x="199.75" y="-39.99" font-family="Times,serif" font-size="14.00">&#45; specialization</text>
<text text-anchor="middle" x="199.75" y="-24.99" font-family="Times,serif" font-size="14.00">&#45; contact_info</text>
</g>
<!-- Patients -->
<g id="node2" class="node">
<title>Patients</title>
<ellipse fill="none" stroke="black" cx="400.75" cy="-58.69" rx="93.18" ry="58.88"/>
<text text-anchor="middle" x="400.75" y="-84.99" font-family="Times,serif" font-size="14.00">Patients</text>
<text text-anchor="middle" x="400.75" y="-69.99" font-family="Times,serif" font-size="14.00">&#45; patient_id (PK)</text>
<text text-anchor="middle" x="400.75" y="-54.99" font-family="Times,serif" font-size="14.00">&#45; name</text>
<text text-anchor="middle" x="400.75" y="-39.99" font-family="Times,serif" font-size="14.00">&#45; date_of_birth</text>
<text text-anchor="middle" x="400.75" y="-24.99" font-family="Times,serif" font-size="14.00">&#45; contact_info</text>
</g>
<!-- Diseases -->
<g id="node3" class="node">
<title>Diseases</title>
<ellipse fill="none" stroke="black" cx="94.75" cy="-222.68" rx="94.51" ry="48.17"/>
<text text-anchor="middle" x="94.75" y="-241.48" font-family="Times,serif" font-size="14.00">Diseases</text>
<text text-anchor="middle" x="94.75" y="-226.48" font-family="Times,serif" font-size="14.00">&#45; disease_id (PK)</text>
<text text-anchor="middle" x="94.75" y="-211.48" font-family="Times,serif" font-size="14.00">&#45; name</text>
<text text-anchor="middle" x="94.75" y="-196.48" font-family="Times,serif" font-size="14.00">&#45; description</text>
</g>
<!-- Visits -->
<g id="node4" class="node">
<title>Visits</title>
<ellipse fill="none" stroke="black" cx="300.75" cy="-222.68" rx="93.18" ry="69.09"/>
<text text-anchor="middle" x="300.75" y="-256.48" font-family="Times,serif" font-size="14.00">Visits</text>
<text text-anchor="middle" x="300.75" y="-241.48" font-family="Times,serif" font-size="14.00">&#45; visit_id (PK)</text>
<text text-anchor="middle" x="300.75" y="-226.48" font-family="Times,serif" font-size="14.00">&#45; doctor_id (FK)</text>
<text text-anchor="middle" x="300.75" y="-211.48" font-family="Times,serif" font-size="14.00">&#45; patient_id (FK)</text>
<text text-anchor="middle" x="300.75" y="-196.48" font-family="Times,serif" font-size="14.00">&#45; visit_date</text>
<text text-anchor="middle" x="300.75" y="-181.48" font-family="Times,serif" font-size="14.00">&#45; notes</text>
</g>
<!-- Visits&#45;&gt;Doctors -->
<g id="edge1" class="edge">
<title>Visits&#45;&gt;Doctors</title>
<path fill="none" stroke="black" d="M261.99,-159.51C254.34,-147.23 246.3,-134.35 238.64,-122.06"/>
<polygon fill="black" stroke="black" points="241.4,-119.88 233.14,-113.24 235.46,-123.58 241.4,-119.88"/>
</g>
<!-- Visits&#45;&gt;Patients -->
<g id="edge2" class="edge">
<title>Visits&#45;&gt;Patients</title>
<path fill="none" stroke="black" d="M339.41,-159.05C346.84,-147.01 354.63,-134.41 362.06,-122.37"/>
<polygon fill="black" stroke="black" points="365.12,-124.07 367.4,-113.72 359.17,-120.39 365.12,-124.07"/>
</g>
<!-- Diagnoses -->
<g id="node5" class="node">
<title>Diagnoses</title>
<ellipse fill="none" stroke="black" cx="197.75" cy="-376.06" rx="105.22" ry="48.17"/>
<text text-anchor="middle" x="197.75" y="-394.86" font-family="Times,serif" font-size="14.00">Diagnoses</text>
<text text-anchor="middle" x="197.75" y="-379.86" font-family="Times,serif" font-size="14.00">&#45; diagnosis_id (PK)</text>
<text text-anchor="middle" x="197.75" y="-364.86" font-family="Times,serif" font-size="14.00">&#45; visit_id (FK)</text>
<text text-anchor="middle" x="197.75" y="-349.86" font-family="Times,serif" font-size="14.00">&#45; disease_id (FK)</text>
</g>
<!-- Diagnoses&#45;&gt;Diseases -->
<g id="edge4" class="edge">
<title>Diagnoses&#45;&gt;Diseases</title>
<path fill="none" stroke="black" d="M167.13,-330.05C155.71,-313.27 142.65,-294.07 130.79,-276.65"/>
<polygon fill="black" stroke="black" points="133.6,-274.55 125.08,-268.25 127.81,-278.49 133.6,-274.55"/>
</g>
<!-- Diagnoses&#45;&gt;Visits -->
<g id="edge3" class="edge">
<title>Diagnoses&#45;&gt;Visits</title>
<path fill="none" stroke="black" d="M228.38,-330.05C236.23,-318.5 244.86,-305.82 253.35,-293.35"/>
<polygon fill="black" stroke="black" points="256.45,-295 259.19,-284.77 250.67,-291.07 256.45,-295"/>
</g>
</g>
</svg>
