<?xml version="1.0" encoding="UTF-8" standalone="no"?>
<!DOCTYPE svg PUBLIC "-//W3C//DTD SVG 1.1//EN"
 "http://www.w3.org/Graphics/SVG/1.1/DTD/svg11.dtd">
<!-- Generated by graphviz version 2.43.0 (0)
 -->
<!-- Title: SoccerLeague Pages: 1 -->
<svg width="720pt" height="411pt"
 viewBox="0.00 0.00 720.02 410.93" xmlns="http://www.w3.org/2000/svg" xmlns:xlink="http://www.w3.org/1999/xlink">
<g id="graph0" class="graph" transform="scale(1 1) rotate(0) translate(4 406.93)">
<title>SoccerLeague</title>
<polygon fill="white" stroke="transparent" points="-4,4 -4,-406.93 716.02,-406.93 716.02,4 -4,4"/>
<!-- Teams -->
<g id="node1" class="node">
<title>Teams</title>
<ellipse fill="none" stroke="black" cx="200.1" cy="-48.08" rx="82.96" ry="48.17"/>
<text text-anchor="middle" x="200.1" y="-66.88" font-family="Times,serif" font-size="14.00">Teams</text>
<text text-anchor="middle" x="200.1" y="-51.88" font-family="Times,serif" font-size="14.00">&#45; team_id (PK)</text>
<text text-anchor="middle" x="200.1" y="-36.88" font-family="Times,serif" font-size="14.00">&#45; name</text>
<text text-anchor="middle" x="200.1" y="-21.88" font-family="Times,serif" font-size="14.00">&#45; region</text>
</g>
<!-- Players -->
<g id="node2" class="node">
<title>Players</title>
<ellipse fill="none" stroke="black" cx="89.1" cy="-190.86" rx="89.19" ry="48.17"/>
<text text-anchor="middle" x="89.1" y="-209.66" font-family="Times,serif" font-size="14.00">Players</text>
<text text-anchor="middle" x="89.1" y="-194.66" font-family="Times,serif" font-size="14.00">&#45; player_id (PK)</text>
<text text-anchor="middle" x="89.1" y="-179.66" font-family="Times,serif" font-size="14.00">&#45; name</text>
<text text-anchor="middle" x="89.1" y="-164.66" font-family="Times,serif" font-size="14.00">&#45; team_id (FK)</text>
</g>
<!-- Players&#45;&gt;Teams -->
<g id="edge1" class="edge">
<title>Players&#45;&gt;Teams</title>
<path fill="none" stroke="black" d="M123.61,-146.09C134.99,-131.65 147.76,-115.46 159.55,-100.5"/>
<polygon fill="black" stroke="black" points="162.54,-102.36 165.99,-92.34 157.05,-98.03 162.54,-102.36"/>
</g>
<!-- Games -->
<g id="node3" class="node">
<title>Games</title>
<ellipse fill="none" stroke="black" cx="311.1" cy="-190.86" rx="115.02" ry="58.88"/>
<text text-anchor="middle" x="311.1" y="-217.16" font-family="Times,serif" font-size="14.00">Games</text>
<text text-anchor="middle" x="311.1" y="-202.16" font-family="Times,serif" font-size="14.00">&#45; game_id (PK)</text>
<text text-anchor="middle" x="311.1" y="-187.16" font-family="Times,serif" font-size="14.00">&#45; home_team_id (FK)</text>
<text text-anchor="middle" x="311.1" y="-172.16" font-family="Times,serif" font-size="14.00">&#45; away_team_id (FK)</text>
<text text-anchor="middle" x="311.1" y="-157.16" font-family="Times,serif" font-size="14.00">&#45; game_date</text>
</g>
<!-- Games&#45;&gt;Teams -->
<g id="edge2" class="edge">
<title>Games&#45;&gt;Teams</title>
<path fill="none" stroke="black" d="M268.81,-136.23C259.46,-124.37 249.57,-111.82 240.29,-100.06"/>
<polygon fill="black" stroke="black" points="242.93,-97.75 233.99,-92.06 237.43,-102.08 242.93,-97.75"/>
</g>
<!-- Goals -->
<g id="node4" class="node">
<title>Goals</title>
<ellipse fill="none" stroke="black" cx="205.1" cy="-344.24" rx="89.19" ry="58.88"/>
<text text-anchor="middle" x="205.1" y="-370.54" font-family="Times,serif" font-size="14.00">Goals</text>
<text text-anchor="middle" x="205.1" y="-355.54" font-family="Times,serif" font-size="14.00">&#45; goal_id (PK)</text>
<text text-anchor="middle" x="205.1" y="-340.54" font-family="Times,serif" font-size="14.00">&#45; game_id (FK)</text>
<text text-anchor="middle" x="205.1" y="-325.54" font-family="Times,serif" font-size="14.00">&#45; player_id (FK)</text>
<text text-anchor="middle" x="205.1" y="-310.54" font-family="Times,serif" font-size="14.00">&#45; time_scored</text>
</g>
<!-- Goals&#45;&gt;Players -->
<g id="edge4" class="edge">
<title>Goals&#45;&gt;Players</title>
<path fill="none" stroke="black" d="M165.5,-291.56C153.65,-276.1 140.66,-259.15 128.8,-243.67"/>
<polygon fill="black" stroke="black" points="131.58,-241.54 122.72,-235.73 126.02,-245.8 131.58,-241.54"/>
</g>
<!-- Goals&#45;&gt;Games -->
<g id="edge3" class="edge">
<title>Goals&#45;&gt;Games</title>
<path fill="none" stroke="black" d="M241.87,-290.72C250.03,-279.06 258.76,-266.59 267.18,-254.57"/>
<polygon fill="black" stroke="black" points="270.08,-256.54 272.94,-246.34 264.34,-252.52 270.08,-256.54"/>
</g>
<!-- Referees -->
<g id="node5" class="node">
<title>Referees</title>
<ellipse fill="none" stroke="black" cx="538.1" cy="-190.86" rx="94.09" ry="37.45"/>
<text text-anchor="middle" x="538.1" y="-202.16" font-family="Times,serif" font-size="14.00">Referees</text>
<text text-anchor="middle" x="538.1" y="-187.16" font-family="Times,serif" font-size="14.00">&#45; referee_id (PK)</text>
<text text-anchor="middle" x="538.1" y="-172.16" font-family="Times,serif" font-size="14.00">&#45; name</text>
</g>
<!-- GameReferees -->
<g id="node6" class="node">
<title>GameReferees</title>
<ellipse fill="none" stroke="black" cx="416.1" cy="-344.24" rx="94.09" ry="37.45"/>
<text text-anchor="middle" x="416.1" y="-355.54" font-family="Times,serif" font-size="14.00">GameReferees</text>
<text text-anchor="middle" x="416.1" y="-340.54" font-family="Times,serif" font-size="14.00">&#45; game_id (FK)</text>
<text text-anchor="middle" x="416.1" y="-325.54" font-family="Times,serif" font-size="14.00">&#45; referee_id (FK)</text>
</g>
<!-- GameReferees&#45;&gt;Games -->
<g id="edge5" class="edge">
<title>GameReferees&#45;&gt;Games</title>
<path fill="none" stroke="black" d="M391.48,-307.74C380.49,-291.91 367.21,-272.76 354.64,-254.63"/>
<polygon fill="black" stroke="black" points="357.5,-252.61 348.92,-246.39 351.74,-256.6 357.5,-252.61"/>
</g>
<!-- GameReferees&#45;&gt;Referees -->
<g id="edge6" class="edge">
<title>GameReferees&#45;&gt;Referees</title>
<path fill="none" stroke="black" d="M444.39,-308.13C462.02,-286.25 484.83,-257.95 503.53,-234.75"/>
<polygon fill="black" stroke="black" points="506.4,-236.76 509.95,-226.78 500.95,-232.37 506.4,-236.76"/>
</g>
<!-- Seasons -->
<g id="node7" class="node">
<title>Seasons</title>
<ellipse fill="none" stroke="black" cx="620.1" cy="-344.24" rx="91.85" ry="48.17"/>
<text text-anchor="middle" x="620.1" y="-363.04" font-family="Times,serif" font-size="14.00">Seasons</text>
<text text-anchor="middle" x="620.1" y="-348.04" font-family="Times,serif" font-size="14.00">&#45; season_id (PK)</text>
<text text-anchor="middle" x="620.1" y="-333.04" font-family="Times,serif" font-size="14.00">&#45; start_date</text>
<text text-anchor="middle" x="620.1" y="-318.04" font-family="Times,serif" font-size="14.00">&#45; end_date</text>
</g>
</g>
</svg>
